<svg width="204" height="44" viewBox="0 0 204 44" fill="none" xmlns="http://www.w3.org/2000/svg">
<path d="M16.46 43.9C11.78 43.9 7.9 42.62 4.82 40.06C1.74 37.5 0.16 33.96 0.0800001 29.44H5.06C5.14 32.72 6.16 35.26 8.12 37.06C10.12 38.82 12.84 39.7 16.28 39.7C19.24 39.7 21.6 38.98 23.36 37.54C25.12 36.06 26 33.9 26 31.06C26 28.46 25.06 26.48 23.18 25.12C21.34 23.76 18.68 23.08 15.2 23.08H12.62V19.18H15.14C18.3 19.18 20.7 18.56 22.34 17.32C23.98 16.08 24.8 14.34 24.8 12.1C24.8 9.9 23.94 8.16 22.22 6.88C20.54 5.56 18.42 4.9 15.86 4.9C12.94 4.9 10.62 5.78 8.9 7.54C7.22 9.26 6.38 11.56 6.38 14.44H1.46C1.5 10.36 2.82 7.1 5.42 4.66C8.02 2.18 11.56 0.939998 16.04 0.939998C19.96 0.939998 23.22 1.96 25.82 4C28.42 6 29.72 8.74 29.72 12.22C29.72 16.46 27.46 19.34 22.94 20.86V21.04C28.46 22.48 31.22 25.98 31.22 31.54C31.22 35.38 29.82 38.4 27.02 40.6C24.26 42.8 20.74 43.9 16.46 43.9ZM35.0202 43C35.1402 40.48 35.5602 38.26 36.2802 36.34C37.0402 34.42 38.3002 32.66 40.0602 31.06C41.8602 29.46 43.2602 28.32 44.2602 27.64C45.3002 26.92 47.1002 25.82 49.6602 24.34C49.7402 24.26 49.8002 24.22 49.8402 24.22C49.8802 24.18 49.9402 24.14 50.0202 24.1C50.1002 24.06 50.1602 24.02 50.2002 23.98C50.2802 23.94 50.3602 23.9 50.4402 23.86C53.6002 22.02 55.8402 20.44 57.1602 19.12C58.4802 17.76 59.1402 15.94 59.1402 13.66C59.1402 11.14 58.3202 9.1 56.6802 7.54C55.0802 5.98 52.9202 5.2 50.2002 5.2C47.4402 5.2 45.2602 6.06 43.6602 7.78C42.1002 9.46 41.3202 12.2 41.3202 16H36.0402C36.0402 11.16 37.3402 7.44 39.9402 4.84C42.5402 2.28 46.1002 0.999997 50.6202 0.999997C54.7402 0.999997 58.0602 2.18 60.5802 4.54C63.1002 6.9 64.3602 9.92 64.3602 13.6C64.3602 15.08 64.1402 16.44 63.7002 17.68C63.2602 18.92 62.8002 19.92 62.3202 20.68C61.8402 21.44 60.9602 22.32 59.6802 23.32C58.4002 24.28 57.4402 24.94 56.8002 25.3C56.2002 25.66 55.0002 26.34 53.2002 27.34C52.8402 27.54 52.5602 27.7 52.3602 27.82C50.4402 28.9 48.8402 29.84 47.5602 30.64C46.3202 31.44 45.0202 32.56 43.6602 34C42.3002 35.4 41.4402 36.8 41.0802 38.2H63.5202V43H35.0202ZM85.6236 43V32.92H66.2436V28.42L86.5836 1.48H90.5436V28.9H97.3236V32.92H90.5436V43H85.6236ZM71.1036 28.72V28.9H85.6236V9.64H85.5036L71.1036 28.72ZM117.268 43.9C112.268 43.9 108.348 41.98 105.508 38.14C102.708 34.26 101.308 29.02 101.308 22.42C101.308 15.78 102.748 10.54 105.628 6.7C108.548 2.86 112.448 0.939998 117.328 0.939998C122.208 0.939998 126.068 2.86 128.908 6.7C131.788 10.5 133.228 15.74 133.228 22.42C133.228 29.06 131.828 34.3 129.028 38.14C126.268 41.98 122.348 43.9 117.268 43.9ZM109.228 35.02C111.068 38.02 113.768 39.52 117.328 39.52C120.888 39.52 123.548 38.04 125.308 35.08C127.108 32.08 128.008 27.86 128.008 22.42C128.008 17.06 127.088 12.86 125.248 9.82C123.448 6.78 120.808 5.26 117.328 5.26C113.768 5.26 111.068 6.76 109.228 9.76C107.428 12.76 106.528 16.98 106.528 22.42C106.528 27.78 107.428 31.98 109.228 35.02ZM154.595 43.9C150.395 43.9 146.975 42.68 144.335 40.24C142.215 38.32 140.715 35.94 139.835 33.1C138.955 30.22 138.515 26.58 138.515 22.18C138.515 15.66 139.875 10.5 142.595 6.7C145.355 2.86 149.295 0.939998 154.415 0.939998C158.295 0.939998 161.335 2.04 163.535 4.24C165.735 6.4 167.015 9.1 167.375 12.34H162.395C162.195 10.3 161.395 8.6 159.995 7.24C158.635 5.88 156.815 5.2 154.535 5.2C150.695 5.2 147.895 6.64 146.135 9.52C144.415 12.36 143.515 16.44 143.435 21.76H143.555C146.315 17.96 150.075 16.06 154.835 16.06C158.595 16.06 161.775 17.42 164.375 20.14C167.015 22.82 168.355 26.06 168.395 29.86C168.435 33.7 167.095 37 164.375 39.76C161.695 42.52 158.435 43.9 154.595 43.9ZM154.475 39.82C157.155 39.82 159.355 38.92 161.075 37.12C162.835 35.28 163.715 32.92 163.715 30.04C163.715 27.16 162.815 24.8 161.015 22.96C159.215 21.12 156.975 20.2 154.295 20.2C151.335 20.2 148.935 21.1 147.095 22.9C145.255 24.7 144.335 27.06 144.335 29.98C144.335 32.86 145.295 35.22 147.215 37.06C149.135 38.9 151.555 39.82 154.475 39.82ZM188.438 43.9C186.438 43.9 184.538 43.66 182.738 43.18C180.978 42.74 179.318 42.04 177.758 41.08C176.238 40.12 175.018 38.8 174.098 37.12C173.178 35.44 172.718 33.48 172.718 31.24C172.718 25.96 175.538 22.4 181.178 20.56V20.38C179.218 19.62 177.658 18.5 176.498 17.02C175.338 15.5 174.758 13.7 174.758 11.62C174.758 8.42 176.038 5.84 178.598 3.88C181.198 1.88 184.418 0.879999 188.258 0.879999C192.138 0.879999 195.358 1.86 197.918 3.82C200.478 5.78 201.758 8.38 201.758 11.62C201.758 15.82 199.658 18.74 195.458 20.38V20.56C197.898 21.28 199.898 22.58 201.458 24.46C203.018 26.3 203.798 28.56 203.798 31.24C203.798 35.56 202.298 38.76 199.298 40.84C196.338 42.88 192.718 43.9 188.438 43.9ZM188.438 39.7C191.638 39.7 194.158 38.96 195.998 37.48C197.838 35.96 198.758 33.88 198.758 31.24C198.758 28.52 197.818 26.38 195.938 24.82C194.098 23.26 191.538 22.48 188.258 22.48C185.018 22.48 182.478 23.26 180.638 24.82C178.798 26.38 177.878 28.52 177.878 31.24C177.878 33.92 178.798 36 180.638 37.48C182.518 38.96 185.118 39.7 188.438 39.7ZM181.958 16.72C183.518 17.92 185.618 18.52 188.258 18.52C190.898 18.52 192.978 17.92 194.498 16.72C196.058 15.52 196.838 13.88 196.838 11.8C196.838 9.72 196.058 8.08 194.498 6.88C192.978 5.68 190.898 5.08 188.258 5.08C185.618 5.08 183.518 5.68 181.958 6.88C180.438 8.08 179.678 9.72 179.678 11.8C179.678 13.88 180.438 15.52 181.958 16.72Z" fill="white"/>
</svg>
